<svg xmlns="http://www.w3.org/2000/svg" viewBox="0 0 64 64" role="img" aria-label="PDF metadata checker icon">
  <defs>
    <linearGradient id="bg" x1="8" y1="4" x2="56" y2="60" gradientUnits="userSpaceOnUse">
      <stop stop-color="#06b6d4"/>
      <stop offset="1" stop-color="#0f172a"/>
    </linearGradient>
    <linearGradient id="fold" x1="42" y1="12" x2="54" y2="24" gradientUnits="userSpaceOnUse">
      <stop stop-color="#e0f2fe"/>
      <stop offset="1" stop-color="#bae6fd"/>
    </linearGradient>
  </defs>
  <rect width="64" height="64" rx="16" fill="url(#bg)"/>
  <path d="M18 10h26l10 10v34H18z" fill="#f8fafc"/>
  <path d="M44 10v12h10" fill="url(#fold)"/>
  <path d="M44 10v12h10" fill="none" stroke="#67e8f9" stroke-width="1.5" stroke-linejoin="round"/>
  <rect x="24" y="29" width="16" height="3" rx="1.5" fill="#0f172a" opacity="0.78"/>
  <rect x="24" y="36" width="14" height="3" rx="1.5" fill="#0f172a" opacity="0.55"/>
  <path d="M41.5 42.5 46 47l8-10" fill="none" stroke="#06b6d4" stroke-width="5" stroke-linecap="round" stroke-linejoin="round"/>
  <path d="M24 46c-2.5 0-4-1.7-4-4s1.5-4 4-4" fill="none" stroke="#06b6d4" stroke-width="3" stroke-linecap="round"/>
  <path d="M33 38c2.5 0 4 1.7 4 4s-1.5 4-4 4" fill="none" stroke="#06b6d4" stroke-width="3" stroke-linecap="round"/>
</svg>
